<?xml version="1.0" encoding="utf-8"?>
<!-- Generator: Adobe Illustrator 22.1.0, SVG Export Plug-In . SVG Version: 6.00 Build 0)  -->
<svg version="1.1" id="Layer_1" xmlns="http://www.w3.org/2000/svg" xmlns:xlink="http://www.w3.org/1999/xlink" x="0px" y="0px"
	 viewBox="0 0 186.5 137" style="enable-background:new 0 0 186.5 137;" xml:space="preserve">
<style type="text/css">
	.st0{fill:#D82C27;}
</style>
<path class="st0" d="M0.2,0h31.4c0.2,1.1,0.3,2.1,0.5,3.1c0.1,0.9,0.1,1.9,0.1,2.7c0,1.7-0.2,3.6-0.6,5.9H13.4v9.2h14.3
	c0.5,2.3,0.7,4.2,0.7,5.9c0,1.7-0.2,3.7-0.7,5.9H13.4v22.6C10.8,55.8,8.6,56,6.8,56c-1.8,0-4-0.2-6.6-0.7V0z"/>
<path class="st0" d="M146.1,44.2c0.3,0,0.7,0.1,1.2,0.1h1.4c1.9,0,3.8-0.2,5.5-0.7c1.7-0.5,3.2-1.3,4.4-2.5c1.2-1.2,2.2-2.8,2.9-4.9
	c0.7-2.1,1.1-4.7,1.1-7.9c0-3.2-0.4-5.8-1.1-7.9c-0.7-2.1-1.7-3.8-2.9-5c-1.2-1.2-2.6-2.1-4.3-2.6c-1.6-0.5-3.3-0.8-5.1-0.8
	c-1,0-1.7,0-2.2,0c-0.5,0-0.7,0-0.9,0L146.1,44.2L146.1,44.2z M147.8,0.1c9.4,0,16.5,2.4,21.3,7.1c4.9,4.7,7.3,11.8,7.3,21.2
	c0,9.5-2.5,16.5-7.4,21c-5,4.4-12.3,6.7-22,6.7c-2.5,0-4.9-0.1-7.2-0.3c-2.3-0.2-4.6-0.5-6.8-0.8V1.1c0.7-0.1,1.7-0.2,2.8-0.3
	c1.1-0.1,2.4-0.2,3.7-0.3c1.3-0.1,2.7-0.2,4.1-0.3C145,0.1,146.4,0.1,147.8,0.1"/>
<path class="st0" d="M78.9,17.1c-0.9-3.4-2.3-6.4-4.2-8.9c-1.9-2.5-4.3-4.5-7.2-5.9C64.5,0.8,61,0.1,57,0.1c-4.1,0-7.6,0.7-10.5,2.2
	c-3,1.4-5.4,3.4-7.3,5.9c-1.9,2.5-3.3,5.5-4.2,8.9c-0.9,3.4-1.4,7.2-1.4,11.2c0,4,0.5,7.7,1.4,11.1c0.9,3.4,2.3,6.3,4.2,8.8
	c1.9,2.5,4.3,4.4,7.3,5.8c2.6,1.2,5.6,1.9,9.1,2c0-7.9,0-8.6,0-9.3c0-3.3-1.6-4.9-3.2-6.4c-1.3-1.1-2.5-2.2-3.4-6.1
	c-1-4.5,1.8-16.4,2.8-20.2c0.2-0.7,0.4-0.7,0.4,0c0,0,0.2,11.5,0.3,15.3c0,0.2,0,0.8,0.6,0.8c0.5,0,0.6-0.5,0.6-0.8
	c0.6-3.8,1.5-15.3,1.5-15.3c0.1-0.8,0.4-0.8,0.4,0c0,0,0.3,11.5,0.9,15.4c0,0.3,0.1,0.7,0.6,0.7h0.1c0.5,0,0.6-0.4,0.6-0.7
	c0.6-3.9,0.9-15.4,0.9-15.4c0-0.8,0.3-0.8,0.4,0c0,0,0.9,11.5,1.5,15.3c0,0.2,0.1,0.8,0.6,0.8c0.6,0,0.6-0.5,0.6-0.8
	c0.2-3.8,0.3-15.3,0.3-15.3c0-0.8,0.2-0.8,0.4,0c1,3.8,3.8,15.7,2.8,20.2c-0.9,4-2.1,5-3.4,6.1c-1.6,1.5-3.2,3.1-3.2,6.4
	c0,0.7,0,1.4,0,9.3c3.4-0.2,6.3-0.8,8.9-2c2.9-1.4,5.3-3.3,7.2-5.8c1.9-2.5,3.3-5.4,4.2-8.8c0.9-3.4,1.4-7.1,1.4-11.1
	C80.3,24.3,79.8,20.5,78.9,17.1"/>
<path class="st0" d="M128.1,17.1c-0.9-3.4-2.3-6.4-4.2-8.9c-1.9-2.5-4.3-4.5-7.2-5.9c-2.9-1.4-6.4-2.2-10.5-2.2
	c-4.1,0-7.6,0.7-10.5,2.2c-3,1.4-5.4,3.4-7.3,5.9c-1.9,2.5-3.3,5.5-4.2,8.9c-0.9,3.4-1.4,7.2-1.4,11.2c0,4,0.5,7.7,1.4,11.1
	c0.9,3.4,2.3,6.3,4.2,8.8c1.9,2.5,4.3,4.4,7.3,5.8c2.4,1.1,5.1,1.8,8.3,2l0.5-12.6c-4.3-1.4-7.5-7.4-7.5-14.7c0-8.3,4.2-15,9.3-15
	c5.1,0,9.3,6.7,9.3,15c0,7.3-3.2,13.3-7.5,14.7l0.5,12.6c3.1-0.2,5.8-0.9,8.1-2c2.9-1.4,5.3-3.3,7.2-5.8c1.9-2.5,3.3-5.4,4.2-8.8
	c0.9-3.4,1.4-7.1,1.4-11.1C129.5,24.3,129,20.6,128.1,17.1"/>
<path class="st0" d="M45.5,137c-2.5,0-5.6-0.3-9.1-0.9v-31H18.2v31c-3.6,0.6-6.6,0.9-9,0.9c-2.5,0-5.6-0.3-9.1-0.9V60.7
	c1.8-0.3,3.5-0.5,5-0.6c1.5-0.1,2.8-0.2,4-0.2c1.2,0,2.6,0.1,4.2,0.2c1.5,0.1,3.2,0.3,5,0.6v28.2h18.2V60.7c1.8-0.3,3.5-0.5,5-0.6
	c1.5-0.1,2.8-0.2,4.1-0.2c1.2,0,2.6,0.1,4.2,0.2c1.5,0.1,3.2,0.3,5,0.6v75.4C50.9,136.7,47.9,137,45.5,137"/>
<path class="st0" d="M89.5,137c-5.5,0-10.1-0.8-13.8-2.3c-3.7-1.5-6.6-3.7-8.7-6.6c-2.1-2.9-3.6-6.4-4.5-10.4
	c-0.9-4.1-1.3-8.7-1.3-13.8V60.8c2-0.3,3.7-0.5,5.1-0.6c1.4-0.1,2.8-0.2,4.1-0.2c1.2,0,2.4,0.1,3.9,0.2c1.4,0.1,3.1,0.3,5.1,0.6
	v40.9c0,3.5,0.1,6.4,0.4,8.8c0.3,2.4,0.8,4.4,1.5,5.9c0.7,1.5,1.7,2.6,3,3.3c1.3,0.7,3,1,5.1,1s3.9-0.3,5.2-1
	c1.3-0.7,2.4-1.7,3.1-3.3c0.7-1.5,1.2-3.5,1.4-5.9c0.2-2.4,0.4-5.4,0.4-8.8V60.8c2-0.3,3.8-0.5,5.2-0.6c1.4-0.1,2.7-0.2,3.9-0.2
	c1.2,0,2.6,0.1,4,0.2c1.4,0.1,3.1,0.3,5.1,0.6v43.1c0,5.1-0.4,9.7-1.3,13.8c-0.9,4.1-2.3,7.6-4.5,10.4c-2.1,2.9-5,5.1-8.7,6.6
	C99.6,136.2,95,137,89.5,137"/>
<path class="st0" d="M142.2,104.4v17.4c0.5,0.1,1.1,0.1,1.8,0.2c0.7,0,1.7,0.1,2.8,0.1c1.3,0,2.6-0.1,4-0.4c1.3-0.3,2.5-0.7,3.6-1.4
	c1.1-0.7,2-1.6,2.6-2.7c0.7-1.1,1-2.6,1-4.3c0-3.3-1.1-5.6-3.2-6.9c-2.2-1.3-4.9-1.9-8.4-1.9L142.2,104.4L142.2,104.4z M142.2,89.6
	h2.9c2.9,0,5.2-0.6,6.9-1.8c1.6-1.2,2.5-3.3,2.5-6.3c0-1.5-0.3-2.7-0.9-3.6c-0.6-1-1.3-1.7-2.2-2.3c-0.9-0.6-1.9-0.9-3-1.1
	c-1.1-0.2-2.2-0.3-3.2-0.3h-1.5c-0.6,0-1.1,0-1.5,0.1L142.2,89.6L142.2,89.6z M176.3,113.9c0,4.6-0.8,8.3-2.5,11.3
	c-1.6,3-3.9,5.3-6.8,7.1c-2.9,1.7-6.3,3-10.3,3.6c-4,0.7-8.3,1-12.9,1c-3.7,0-7-0.1-10-0.4c-2.9-0.3-6.1-0.6-9.5-1V61.3
	c2.6-0.4,5.4-0.8,8.5-1c3.1-0.3,6.7-0.4,10.8-0.4c3.9,0,7.5,0.3,10.9,1c3.4,0.7,6.3,1.8,8.9,3.3c2.5,1.6,4.5,3.6,6,6.2
	c1.5,2.6,2.2,5.9,2.2,9.8c0,3.3-0.7,6.2-2.2,8.9c-1.4,2.7-3.3,4.7-5.4,6.2c1.6,0.6,3.1,1.4,4.6,2.4c1.5,1,2.8,2.3,3.9,3.7
	c1.1,1.5,2,3.3,2.7,5.4C176,108.9,176.3,111.2,176.3,113.9"/>
<polygon class="st0" points="180.6,0.2 180.6,0.8 178.8,0.8 178.8,5.6 178.1,5.6 178.1,0.8 176.3,0.8 176.3,0.2 "/>
<path class="st0" d="M181.3,0.2h1.1l1.6,4.6l1.5-4.6h1v5.4h-0.7V2.4c0-0.1,0-0.3,0-0.5c0-0.3,0-0.5,0-0.8l-1.5,4.6h-0.7L182,1v0.2
	c0,0.1,0,0.3,0,0.6c0,0.3,0,0.5,0,0.6v3.2h-0.7V0.2z"/>
</svg>
